<svg xmlns="http://www.w3.org/2000/svg" width="136" height="24" viewBox="0 0 136 24" role="img" aria-label="speculative decoding">
  <defs>
    <linearGradient id="spec-bg" x1="0" x2="1" y1="0" y2="0">
      <stop offset="0" stop-color="#101820"/>
      <stop offset="0.52" stop-color="#23303d"/>
      <stop offset="1" stop-color="#101820"/>
    </linearGradient>
    <linearGradient id="pulse" x1="0" x2="1" y1="0" y2="0">
      <stop offset="0" stop-color="#76b900" stop-opacity="0"/>
      <stop offset="0.5" stop-color="#76b900" stop-opacity="0.85"/>
      <stop offset="1" stop-color="#76b900" stop-opacity="0"/>
    </linearGradient>
  </defs>
  <rect x="0.5" y="2.5" width="135" height="19" rx="9.5" fill="url(#spec-bg)" stroke="#76b900" stroke-opacity="0.85"/>
  <rect x="-42" y="3" width="34" height="18" rx="9" fill="url(#pulse)">
    <animate attributeName="x" values="-42;144" dur="1.55s" repeatCount="indefinite"/>
  </rect>
  <text x="12" y="16" fill="#ffffff" font-family="Arial, Helvetica, sans-serif" font-size="10" font-weight="700" letter-spacing="0">SPEC DEC</text>
  <g fill="#ffb000">
    <path d="M78 7 L85 12 L78 17 L78 14 L71 14 L71 10 L78 10 Z">
      <animateTransform attributeName="transform" type="translate" values="-6 0;0 0;-6 0" dur="0.9s" repeatCount="indefinite"/>
      <animate attributeName="opacity" values="0.35;1;0.35" dur="0.9s" repeatCount="indefinite"/>
    </path>
    <path d="M96 7 L103 12 L96 17 L96 14 L89 14 L89 10 L96 10 Z">
      <animateTransform attributeName="transform" type="translate" values="-6 0;0 0;-6 0" dur="0.9s" begin="0.15s" repeatCount="indefinite"/>
      <animate attributeName="opacity" values="0.35;1;0.35" dur="0.9s" begin="0.15s" repeatCount="indefinite"/>
    </path>
    <path d="M114 7 L121 12 L114 17 L114 14 L107 14 L107 10 L114 10 Z">
      <animateTransform attributeName="transform" type="translate" values="-6 0;0 0;-6 0" dur="0.9s" begin="0.3s" repeatCount="indefinite"/>
      <animate attributeName="opacity" values="0.35;1;0.35" dur="0.9s" begin="0.3s" repeatCount="indefinite"/>
    </path>
    <circle cx="128" cy="12" r="2">
      <animate attributeName="r" values="1.2;3;1.2" dur="0.9s" repeatCount="indefinite"/>
      <animate attributeName="opacity" values="0.45;1;0.45" dur="0.9s" repeatCount="indefinite"/>
    </circle>
  </g>
  <g fill="#ffffff">
    <path d="M64 4.5 L65 7 L67.5 8 L65 9 L64 11.5 L63 9 L60.5 8 L63 7 Z">
      <animate attributeName="opacity" values="0.25;1;0.25" dur="1.1s" repeatCount="indefinite"/>
      <animateTransform attributeName="transform" type="scale" values="0.8;1.12;0.8" dur="1.1s" repeatCount="indefinite"/>
    </path>
    <path d="M106 3.5 L106.7 5.3 L108.5 6 L106.7 6.7 L106 8.5 L105.3 6.7 L103.5 6 L105.3 5.3 Z">
      <animate attributeName="opacity" values="1;0.3;1" dur="1.25s" repeatCount="indefinite"/>
      <animateTransform attributeName="transform" type="scale" values="1.08;0.75;1.08" dur="1.25s" repeatCount="indefinite"/>
    </path>
  </g>
</svg>
